<svg xmlns="http://www.w3.org/2000/svg" xmlns:xlink="http://www.w3.org/1999/xlink" width="2000" height="707" shape-rendering="geometricPrecision" image-rendering="optimizeQuality" fill-rule="evenodd" xmlns:v="https://vecta.io/nano"><g fill="#fefffe"><path d="M.5-.5h462v16h18v18h17v673h-462v-16h-17v-18H.5V-.5zm10 8h442v655h-442V7.5zm452 18h8v655h-443v-8h435v-647zm18 18h8v655h-443v-8h435v-647zm-344 486c5.175-.993 7.009 1.007 5.5 6-7.171 7.331-15.671 12.164-25.5 14.5 4.833-8.665 11.499-15.499 20-20.5zm23 12l3 1.5c-3.244 8.425-9.244 13.258-18 14.5-2.212.088-4.212-.412-6-1.5 5.822-6.675 12.822-11.508 21-14.5zm-19 4c-3.645 3.146-6.312 6.98-8 11.5.64 3.306 2.64 5.306 6 6-7.529 2.943-15.029 3.11-22.5.5-1.496-1.95-1.663-3.95-.5-6 8.772-3.248 17.106-7.248 25-12zm-72 4c1.022 6.333-1.144 11.666-6.5 16 .298-6.055 2.465-11.389 6.5-16z" opacity=".914"/><path d="M89.5 33.5c37.328-1.342 58.328 16.491 63 53.5-1.225 19.962-10.058 35.462-26.5 46.5l-1 78c-8.681-8.848-17.514-17.514-26.5-26-8.986 8.486-17.819 17.152-26.5 26l-1-78c-24.15-17.119-31.483-39.785-22-68 8.388-17.261 21.888-27.928 40.5-32z" opacity=".98"/><path d="M153.5 60.5l256-.5c4.833.833 7.667 3.667 8.5 8.5.726 4.739.393 9.405-1 14-1.109 2.315-2.943 3.815-5.5 4.5l-252 .5c.34-9.63-1.66-18.63-6-27z" opacity=".946"/><path d="M133.5 157.5l278 .5c4.078 1.288 6.412 4.122 7 8.5-.682 4.848-3.349 8.015-8 9.5l-277 .5v-19z" opacity=".931"/><path d="M51.5 201.5h12v19a72.37 72.37 0 0 1-12-.5c-7.129-3.396-8.629-8.563-4.5-15.5 1.652-.899 3.152-1.899 4.5-3z" opacity=".872"/><path d="M92.5 201.5c4.014-.166 8.014.001 12 .5a420.29 420.29 0 0 1 17 17.5c-15.333 1.333-30.667 1.333-46 0l17-18z" opacity=".877"/><path d="M133.5 201.5l277 .5c7.432 3.245 9.266 8.411 5.5 15.5-1.419.96-2.919 1.793-4.5 2.5l-278 .5v-19z" opacity=".931"/><path d="M973.5 217.5h31v268h-29c.166-6.675 0-13.342-.5-20-26.242 22.348-55.742 27.848-88.5 16.5-34.05-15.906-51.716-42.739-53-80.5 1.284-37.761 18.95-64.594 53-80.5 31.459-11.035 60.126-6.201 86 14.5a3482.25 3482.25 0 0 0 1-118zm-60 126c33.535-.987 54.702 14.679 63.5 47 3.723 26.379-5.444 46.879-27.5 61.5-28.533 13.494-53.033 8.327-73.5-15.5-16.053-25.362-15.053-50.028 3-74 9.622-9.891 21.122-16.225 34.5-19z" opacity=".968"/><path d="M1475.5 217.5h31v268h-31v-268z" opacity=".97"/><path d="M1122.5 230.5c29.88-2.634 54.05 7.7 72.5 31 16.63 27.602 16.63 55.268 0 83l-76.5 111a2210 2210 0 0 0 94 1v29c-49.67.167-99.33 0-149-.5L1166 332.5c8.82-12.433 11.82-26.099 9-41-7.02-19.676-21.02-30.342-42-32-26.04 2.377-40.54 16.543-43.5 42.5.6 13.869 6.27 25.203 17 34-13.24.822-26.41.655-39.5-.5-15.08-33.114-9.58-62.28 16.5-87.5 11.6-9.137 24.6-14.97 39-17.5z" opacity=".965"/><path d="M561.5 233.5l78 .5c31.415 2.748 50.249 19.582 56.5 50.5 2.161 21.003-5.006 38.003-21.5 51 36.892 20.125 50.725 50.792 41.5 92-12.002 34.32-36.169 53.487-72.5 57.5-27.572.828-55.072.661-82.5-.5l.5-251zm32 30c15.337-.167 30.67 0 46 .5 21.24 4.971 29.407 18.137 24.5 39.5-6.125 13.994-16.958 20.827-32.5 20.5-12.662.5-25.329.667-38 .5v-61zm0 88a924.22 924.22 0 0 1 43 .5c30.911 3.579 47.578 20.912 50 52-2.543 31.542-19.543 48.876-51 52-13.996.5-27.996.667-42 .5v-105z" opacity=".964"/><path d="M1274.5 233.5a1366.93 1366.93 0 0 1 87 1.5c30.28 6.832 46.61 25.832 49 57-.6 18.031-7.93 32.531-22 43.5 42.94 25.711 54.44 61.711 34.5 108-14.77 24.812-36.61 38.645-65.5 41.5l-83 .5v-252zm33 30a1057.61 1057.61 0 0 1 46 .5c21.71 5.916 29.54 19.749 23.5 41.5-3.23 7.563-8.73 12.729-16.5 15.5-5.18 1.798-10.51 2.798-16 3a684.33 684.33 0 0 1-37 .5v-61zm0 88a881.87 881.87 0 0 1 42 .5c31.62 2.958 48.29 20.291 50 52-.9 25.142-13.24 41.809-37 50-4.29.912-8.63 1.579-13 2a881.87 881.87 0 0 1-42 .5v-105z" opacity=".966"/><path d="M49.5 246.5l363 .5c8 5.667 8 11.333 0 17h-362c-7.505-5.377-7.838-11.21-1-17.5z" opacity=".982"/><path d="M770.5 247.5c19.321-1.845 28.154 6.822 26.5 26-5.004 12.681-14.171 17.181-27.5 13.5-11.391-5.953-15.224-15.12-11.5-27.5 2.744-5.579 6.911-9.579 12.5-12z" opacity=".946"/><use xlink:href="#B" opacity=".931"/><path d="M1619.5 314.5c42.96-3.782 73.79 13.551 92.5 52 4.93 14.252 6.76 28.919 5.5 44-40 .167-80 0-120-.5l-18-1.5c2.66 18.508 12 32.674 28 42.5 32.18 15.199 59.84 9.365 83-17.5a10.89 10.89 0 0 1 2.5 6c2.49 9.635 4.49 19.301 6 29-22.04 16.719-46.87 23.219-74.5 19.5-43.08-7.418-68.58-32.585-76.5-75.5-3.85-43.159 13.65-73.993 52.5-92.5 6.33-2.327 12.66-4.16 19-5.5zm8 27c23.23-.802 41.07 8.532 53.5 28 2.7 5.063 4.54 10.397 5.5 16-36.04-1.621-72.04-1.287-108 1 7.15-25.151 23.48-40.151 49-45z" opacity=".963"/><path d="M1790.5 314.5c19.33-2.101 37.33 1.732 54 11.5 3.05 2.714 5.72 5.714 8 9l-8.5 32.5c-7.86-13.19-19.19-21.857-34-26-13.75-3.427-24.08.906-31 13-2.66 9.166-.16 16.666 7.5 22.5a377.95 377.95 0 0 0 34 14c31.3 12.097 42.13 34.264 32.5 66.5-8.25 17.05-21.75 27.216-40.5 30.5-22.05 2.822-42.05-2.178-60-15-2.27-1.765-3.94-3.932-5-6.5 2.39-10.907 5.39-21.574 9-32 11.74 18.906 28.74 28.073 51 27.5 15.63-2.628 22.46-11.795 20.5-27.5a20.97 20.97 0 0 0-4.5-8.5 188.78 188.78 0 0 0-40-18c-33.46-15.136-41.96-39.303-25.5-72.5 8.37-10.926 19.2-17.926 32.5-21z" opacity=".958"/><path d="M1932.5 314.5c17.98-1.903 34.98 1.264 51 9.5l8 6c1.86 1.182 2.86 2.849 3 5l-8.5 32.5c-10.69-18.095-26.53-26.929-47.5-26.5-16.47 4.726-21.63 14.893-15.5 30.5l5.5 5.5a832.43 832.43 0 0 1 50 22c19.35 15.357 24.85 34.857 16.5 58.5-8.26 17.054-21.76 27.22-40.5 30.5-20.14 2.629-38.81-1.371-56-12-2.93-2.382-5.76-4.882-8.5-7.5l-.5-2c2.69-10.782 5.69-21.449 9-32 8.32 13.146 19.99 21.98 35 26.5 11.41 3.05 21.91 1.217 31.5-5.5 10.25-16.159 6.75-28.325-10.5-36.5-15.28-4.979-29.94-11.312-44-19-15.05-11.477-20.89-26.644-17.5-45.5 4.64-21.807 17.81-35.14 39.5-40z" opacity=".959"/><path d="M761.5 317.5h31v168h-31v-168z" opacity=".967"/><path d="M51.5 334.5l359 .5c7.432 3.245 9.266 8.411 5.5 15.5-1.419.96-2.919 1.793-4.5 2.5h-360c-7.129-3.396-8.629-8.563-4.5-15.5 1.652-.899 3.152-1.899 4.5-3z" opacity=".935"/><path d="M49.5 379.5l363 .5c8 5.667 8 11.333 0 17h-362c-7.505-5.377-7.838-11.21-1-17.5z" opacity=".982"/><use xlink:href="#B" y="133" opacity=".931"/><path d="M51.5 467.5l173 .5c6.277 2.389 8.443 6.889 6.5 13.5a17.84 17.84 0 0 1-5.5 4.5h-175c-6.259-3.956-7.426-9.122-3.5-15.5 1.652-.899 3.152-1.899 4.5-3z" opacity=".929"/><path d="M329.5 521.5c4.633-1.042 7.799.625 9.5 5 1.828 6.375 1.661 12.709-.5 19 4.709 9.068 11.709 11.234 21 6.5.797-3.745 1.297-7.579 1.5-11.5.118-2.073 1.118-3.407 3-4 8.297 4.32 9.464 9.987 3.5 17 2.334 2.487 4.834 2.487 7.5 0 1.908-2.706 2.741-5.706 2.5-9h5v6c8.313-.805 11.146-5.139 8.5-13 3.562-5.531 6.562-5.197 9 1 .155 2.356.155 4.689 0 7a62.49 62.49 0 0 0 15.5 6c1.247 1.506 1.247 3.006 0 4.5-7.143-.159-13.643-2.326-19.5-6.5-4.494 4.558-9.994 6.891-16.5 7-5.829 6.582-11.663 6.582-17.5 0-9.158 4.867-17.492 3.867-25-3l-4.5 6.5c-3 2-6 2-9 0-6.051-10.384-14.384-18.384-25-24-10.214-1.128-15.547 3.538-16 14 1.164 6.138 1.664 12.305 1.5 18.5-1.775 2.544-3.608 2.544-5.5 0-1.109-1.885-1.943-3.885-2.5-6-.185-10.724-1.018-21.39-2.5-32-.992-5.008 1.008-7.008 6-6-1.474 4.45-1.141 8.784 1 13 6.23-7.123 13.896-8.957 23-5.5 10.167 6.167 18.333 14.333 24.5 24.5 2.712-2.59 4.212-5.757 4.5-9.5-2.174-8.502-3.174-17.002-3-25.5z" opacity=".832"/><path d="M141.5 544.5c5.821-4.155 12.321-6.822 19.5-8 6.023.692 8.023 4.026 6 10-.883 2.602-2.383 4.769-4.5 6.5 10.473-2.395 20.473-6.229 30-11.5 2.781 1.287 3.448 3.287 2 6a265.16 265.16 0 0 1-44 15.5c-11.929 8.328-24.596 9.994-38 5-2.274-2.344-3.441-5.178-3.5-8.5-12.604 5.615-18.77 1.282-18.5-13-5.359 3.862-9.692 8.695-13 14.5-1.612.72-3.112.554-4.5-.5a28.51 28.51 0 0 1-11.5 12c-3.599-1.574-5.266-4.407-5-8.5.777-5.166 2.444-9.999 5-14.5-6.933 3.1-11.6 8.267-14 15.5 1.761 3.067 1.261 5.567-1.5 7.5a6.54 6.54 0 0 1-3-3c-.854-4.125-.52-8.125 1-12 4.654-6.989 10.821-12.156 18.5-15.5a27.84 27.84 0 0 1 13 1c2.167.833 3.667 2.333 4.5 4.5 11.785-10.225 17.785-7.559 18 8 4.486 1.288 8.486.288 12-3 5.092-14.759 15.092-24.426 30-29 7.966 2.269 10.3 7.269 7 15a46.08 46.08 0 0 0-5.5 6zm-5-15c-8.501 5.001-15.167 11.835-20 20.5 9.829-2.336 18.329-7.169 25.5-14.5 1.509-4.993-.325-6.993-5.5-6zm23 12c-8.178 2.992-15.178 7.825-21 14.5 1.788 1.088 3.788 1.588 6 1.5 8.756-1.242 14.756-6.075 18-14.5l-3-1.5zm-19 4c-7.894 4.752-16.228 8.752-25 12-1.163 2.05-.996 4.05.5 6 7.471 2.61 14.971 2.443 22.5-.5-3.36-.694-5.36-2.694-6-6 1.688-4.52 4.355-8.354 8-11.5zm-72 4c-4.035 4.611-6.202 9.945-6.5 16 5.356-4.334 7.522-9.667 6.5-16z" opacity=".811"/><path d="M46.5 583.5l139 .5c2.667 2.667 2.667 5.333 0 8-46.333.667-92.667.667-139 0-2.561-2.823-2.561-5.657 0-8.5z" opacity=".975"/><path d="M277.5 583.5l139 .5c2.667 2.667 2.667 5.333 0 8-46.333.667-92.667.667-139 0-2.601-2.83-2.601-5.663 0-8.5z" opacity=".976"/></g><defs ><path id="B" d="M50.5 290.5l361 .5c4.078 1.288 6.412 4.122 7 8.5-.682 4.848-3.349 8.015-8 9.5h-358c-7.165-2.501-9.332-7.335-6.5-14.5 1.397-1.57 2.897-2.904 4.5-4z"/></defs></svg>