<svg xmlns="http://www.w3.org/2000/svg" width="500" height="707" shape-rendering="geometricPrecision" image-rendering="optimizeQuality" fill-rule="evenodd" fill="#fefefe" xmlns:v="https://vecta.io/nano"><path d="M.5-.5h462v16h18v18h17v673h-462v-16h-17v-18H.5V-.5zm10 8h442v655h-442V7.5zm452 18h8v655h-443v-8h435v-647zm18 18h8v655h-443v-8h435v-647zm-344 486c6.28-.041 7.613 2.626 4 8-7.109 6.053-15.109 10.22-24 12.5 4.833-8.665 11.499-15.499 20-20.5zm23 12c1.256-.039 2.256.461 3 1.5-3.244 8.425-9.244 13.258-18 14.5-2.212.088-4.212-.412-6-1.5 5.822-6.675 12.822-11.508 21-14.5zm-19 4c-3.645 3.146-6.312 6.98-8 11.5.64 3.306 2.64 5.306 6 6-7.529 2.943-15.029 3.11-22.5.5-1.496-1.95-1.663-3.95-.5-6 8.772-3.248 17.106-7.248 25-12zm-72 4c1.022 6.333-1.144 11.666-6.5 16 .298-6.055 2.465-11.389 6.5-16z" opacity=".914"/><path d="M89.5 33.5c37.642-1.353 58.642 16.647 63 54-1.368 19.747-10.201 35.081-26.5 46l-1 78c-8.681-8.848-17.514-17.514-26.5-26-8.986 8.486-17.819 17.152-26.5 26l-1-78c-24.15-17.119-31.483-39.785-22-68 8.388-17.261 21.888-27.928 40.5-32z" opacity=".981"/><path d="M154.5 59.5l255 .5c4.833.833 7.667 3.667 8.5 8.5.726 4.739.393 9.405-1 14-1.109 2.315-2.943 3.815-5.5 4.5l-252 .5a60.93 60.93 0 0 0-.5-11 510.12 510.12 0 0 0-4.5-17z" opacity=".946"/><path d="M133.5 157.5l278 .5c4.232 1.439 6.565 4.439 7 9-.89 4.558-3.556 7.558-8 9l-277 .5v-19z" opacity=".931"/><path d="M51.5 201.5h12v19a72.37 72.37 0 0 1-12-.5c-7.129-3.396-8.629-8.563-4.5-15.5 1.652-.899 3.152-1.899 4.5-3z" opacity=".872"/><path d="M92.5 201.5c4.014-.166 8.014.001 12 .5a420.29 420.29 0 0 1 17 17.5c-15.333 1.333-30.667 1.333-46 0l17-18z" opacity=".877"/><path d="M133.5 201.5l277 .5c7.432 3.245 9.266 8.411 5.5 15.5-1.419.96-2.919 1.793-4.5 2.5l-278 .5v-19z" opacity=".931"/><path d="M49.5 246.5l363 .5c8 5.667 8 11.333 0 17h-362c-7.505-5.377-7.838-11.21-1-17.5z" opacity=".982"/><path d="M50.5 290.5l361 .5c4.232 1.439 6.565 4.439 7 9-.89 4.558-3.556 7.558-8 9h-358c-7.165-2.501-9.332-7.335-6.5-14.5 1.397-1.57 2.897-2.904 4.5-4z" opacity=".931"/><path d="M51.5 334.5l359 .5c7.432 3.245 9.266 8.411 5.5 15.5-1.419.96-2.919 1.793-4.5 2.5h-360c-7.129-3.396-8.629-8.563-4.5-15.5 1.652-.899 3.152-1.899 4.5-3z" opacity=".935"/><path d="M49.5 379.5l363 .5c8 5.667 8 11.333 0 17h-362c-7.505-5.377-7.838-11.21-1-17.5z" opacity=".982"/><path d="M50.5 423.5l361 .5c5.849 2.918 7.683 7.418 5.5 13.5-1.637 2.31-3.804 3.81-6.5 4.5h-358c-7.165-2.501-9.332-7.335-6.5-14.5 1.397-1.57 2.897-2.904 4.5-4z" opacity=".931"/><path d="M51.5 467.5l173 .5c6.277 2.389 8.443 6.889 6.5 13.5a17.84 17.84 0 0 1-5.5 4.5h-174c-7.129-3.396-8.629-8.563-4.5-15.5 1.652-.899 3.152-1.899 4.5-3z" opacity=".929"/><path d="M329.5 521.5c4.633-1.042 7.799.625 9.5 5 1.828 6.375 1.661 12.709-.5 19 4.709 9.068 11.709 11.234 21 6.5.797-3.745 1.297-7.579 1.5-11.5.118-2.073 1.118-3.407 3-4 8.297 4.32 9.464 9.987 3.5 17 2.334 2.487 4.834 2.487 7.5 0 1.908-2.706 2.741-5.706 2.5-9h5v6c8.313-.805 11.146-5.139 8.5-13 3.562-5.531 6.562-5.197 9 1 .155 2.356.155 4.689 0 7a62.49 62.49 0 0 0 15.5 6c1.247 1.506 1.247 3.006 0 4.5-7.143-.159-13.643-2.326-19.5-6.5-4.494 4.558-9.994 6.891-16.5 7-5.829 6.582-11.663 6.582-17.5 0-9.158 4.867-17.492 3.867-25-3l-4.5 6.5c-3 2-6 2-9 0-6.051-10.384-14.384-18.384-25-24-10.257-1.082-15.59 3.585-16 14 1.164 6.138 1.664 12.305 1.5 18.5-2.276 2.564-4.276 2.23-6-1a22.98 22.98 0 0 1-2-5c-.185-10.724-1.018-21.39-2.5-32-.992-5.008 1.008-7.008 6-6-1.474 4.45-1.141 8.784 1 13 6.271-7.027 13.938-8.861 23-5.5 10.167 6.167 18.333 14.333 24.5 24.5 2.712-2.59 4.212-5.757 4.5-9.5-2.174-8.502-3.174-17.002-3-25.5z" opacity=".834"/><path d="M141.5 544.5c5.821-4.155 12.321-6.822 19.5-8 6.043.737 8.043 4.071 6 10-.883 2.602-2.383 4.769-4.5 6.5 10.473-2.395 20.473-6.229 30-11.5 2.781 1.287 3.448 3.287 2 6-14.203 6.457-28.869 11.623-44 15.5-10.41 7.067-21.743 9.4-34 7-4.592-2.022-7.092-5.522-7.5-10.5-12.48 5.316-18.647.982-18.5-13-5.828 3.485-10.161 8.318-13 14.5-1.612.72-3.112.554-4.5-.5a28.51 28.51 0 0 1-11.5 12c-3.599-1.574-5.266-4.407-5-8.5.777-5.166 2.444-9.999 5-14.5-6.933 3.1-11.6 8.267-14 15.5 1.761 3.067 1.261 5.567-1.5 7.5a6.54 6.54 0 0 1-3-3c-.854-4.125-.52-8.125 1-12 4.654-6.989 10.821-12.156 18.5-15.5a27.84 27.84 0 0 1 13 1c2.052.93 3.552 2.43 4.5 4.5 11.785-10.225 17.785-7.559 18 8 4.486 1.288 8.486.288 12-3 5.092-14.759 15.092-24.426 30-29 8.686 2.718 10.686 8.051 6 16-1.707 1.537-3.207 3.204-4.5 5zm-5-15c-8.501 5.001-15.167 11.835-20 20.5 8.891-2.28 16.891-6.447 24-12.5 3.613-5.374 2.28-8.041-4-8zm23 12c-8.178 2.992-15.178 7.825-21 14.5 1.788 1.088 3.788 1.588 6 1.5 8.756-1.242 14.756-6.075 18-14.5-.744-1.039-1.744-1.539-3-1.5zm-19 4c-7.894 4.752-16.228 8.752-25 12-1.163 2.05-.996 4.05.5 6 7.471 2.61 14.971 2.443 22.5-.5-3.36-.694-5.36-2.694-6-6 1.688-4.52 4.355-8.354 8-11.5zm-72 4c-4.035 4.611-6.202 9.945-6.5 16 5.356-4.334 7.522-9.667 6.5-16z" opacity=".815"/><path d="M46.5 583.5l139 .5c2.667 2.667 2.667 5.333 0 8-46.333.667-92.667.667-139 0-2.561-2.823-2.561-5.657 0-8.5z" opacity=".975"/><path d="M277.5 583.5l139 .5c2.667 2.667 2.667 5.333 0 8-46.333.667-92.667.667-139 0-2.601-2.83-2.601-5.663 0-8.5z" opacity=".976"/></svg>