<svg xmlns="http://www.w3.org/2000/svg" xmlns:xlink="http://www.w3.org/1999/xlink" width="500" height="707" shape-rendering="geometricPrecision" image-rendering="optimizeQuality" fill-rule="evenodd" xmlns:v="https://vecta.io/nano"><path fill="#4f4f4f" d="M.5-.5h1v672c5.858-.322 11.525.011 17 1H.5V-.5z" opacity=".686"/><path fill="#010101" d="M1.5-.5h460v17h18v17c5.475.989 11.142 1.322 17 1v672h-460v-17h-18v-17c-5.475-.989-11.142-1.322-17-1V-.5zm9 8h442v655h-442V7.5zm17 673v-8h435v-647h8v655h-443zm461-637v655h-443v-8h434l1-647h8zm-347 486c.841 1.879 1.175 3.879 1 6-7.024 6.514-15.024 11.514-24 15-.992.172-1.658-.162-2-1 4.785-8.284 11.452-14.784 20-19.5a12.93 12.93 0 0 1 5-.5zm18 12c1.256-.039 2.256.461 3 1.5-3.244 8.425-9.244 13.258-18 14.5-2.212.088-4.212-.412-6-1.5 5.822-6.675 12.822-11.508 21-14.5zm-19 4c-3.645 3.146-6.312 6.98-8 11.5.64 3.306 2.64 5.306 6 6-7.529 2.943-15.029 3.11-22.5.5-1.496-1.95-1.663-3.95-.5-6 8.772-3.248 17.106-7.248 25-12zm-72 4c.951 1.419 1.284 3.085 1 5-1.273 2.213-2.273 4.546-3 7l-5 4c.793-6.059 3.126-11.392 7-16z"/><path fill="#7d7d7d" d="M9.5 7.5l444-1-1 657v-1-655h-442-1z" opacity=".443"/><path fill="#9c9c9c" d="M461.5-.5h1v16h18v18h-1v-17h-18v-17z" opacity=".467"/><path fill="#757575" d="M27.5 680.5h443v-655h-8v647h-435l434-1v-647h10v657c-148.168.333-296.168 0-444-1z" opacity=".427"/><path fill="#040404" d="M138.5 51.5c-.073 1.527.594 2.527 2 3 14.79 20.937 15.29 42.271 1.5 64-4.09 5.927-9.257 10.593-15.5 14-1.664 25.484-2.664 51.15-3 77l-25-24-25 24-1.5-77c-.671-.752-1.504-1.086-2.5-1-1.527.073-2.527-.594-3-2s-1.473-2.073-3-2c-16.65-15.248-22.15-33.914-16.5-56 1.56-6.126 4.393-11.459 8.5-16 1.406-.473 2.073-1.473 2-3 6.119-8.112 14.119-13.446 24-16 2.652.09 4.986-.576 7-2 19.861-3.491 36.528 2.175 50 17z"/><path fill="#1b1b1b" d="M479.5 33.5h1 17v673h-1v-672c-5.858.322-11.525-.011-17-1z" opacity=".894"/><path fill="#595959" d="M88.5 34.5c-2.014 1.424-4.348 2.09-7 2 2.014-1.424 4.348-2.09 7-2z" opacity=".961"/><path fill="#d6d6d6" d="M488.5 43.5h-8l-1 647v-1-647c3.213-.31 6.213.023 9 1z" opacity=".161"/><use xlink:href="#B" fill="#8e8e8e" opacity=".745"/><use xlink:href="#C" fill="#7f7f7f" opacity=".8"/><path fill="#0c0c0c" d="M411.5 86.5h-251c.31-3.213-.023-6.213-1-9l-5-18 255 .5c7.065 1.627 10.065 6.127 9 13.5a26.53 26.53 0 0 1-2.5 11c-1.33 1.082-2.83 1.749-4.5 2z"/><path fill="#8a8a8a" d="M159.5 77.5c.977 2.787 1.31 5.787 1 9h251l-252 1v-10z" opacity=".467"/><use xlink:href="#D" fill="#838383" opacity=".784"/><path fill="#444" d="M69.5 131.5c.996-.086 1.829.248 2.5 1l1.5 77c-.283.789-.783 1.456-1.5 2l-1-78c-.717-.544-1.217-1.211-1.5-2z" opacity=".745"/><g fill="#8a8a8a"><path d="M126.5 132.5l-1.5 79c-.717-.544-1.217-1.211-1.5-2 .336-25.85 1.336-51.516 3-77z" opacity=".459"/><path d="M411.5 158.5h-277v17h276l-277 1v-19l278 1z" opacity=".6"/></g><path d="M411.5 158.5c1.291-.237 2.291.096 3 1-.073 1.527.594 2.527 2 3 2.458 4.685 1.458 8.852-3 12.5-.948.483-1.948.649-3 .5h-276v-17h277z"/><use xlink:href="#B" x="276" y="108" fill="#7a7a7a" opacity=".839"/><path fill="#101010" d="M51.5 202.5h11v17h-11c-4.626-.803-6.959-3.636-7-8.5.361-4.598 2.694-7.432 7-8.5z"/><path fill="#a3a3a3" d="M51.5 202.5c3.798-.983 7.798-1.317 12-1v19c-4.202.317-8.202-.017-12-1h11v-17h-11z" opacity=".388"/><path fill="#0d0d0d" d="M104.5 202.5c5.667 5 11 10.333 16 16a242.56 242.56 0 0 1-44 0 3 3 0 0 1 2-2c5.408-3.9 10.408-8.4 15-13.5a60.93 60.93 0 0 1 11-.5z"/><path d="M410.5 202.5c4.519 1.021 7.186 3.854 8 8.5-.355 4.581-2.689 7.415-7 8.5h-277v-17h276z"/><path fill="#686868" d="M104.5 202.5a60.93 60.93 0 0 0-11 .5c-4.592 5.1-9.592 9.6-15 13.5 4.463-4.965 9.13-9.798 14-14.5 4.189-.812 8.189-.645 12 .5z" opacity=".91"/><path fill="#8c8c8c" d="M76.5 218.5a242.56 242.56 0 0 0 44 0c.543.06.876.393 1 1-15.333 1.333-30.667 1.333-46 0 .124-.607.457-.94 1-1z" opacity=".467"/><path fill="#969696" d="M410.5 202.5h-276v17h277l-278 1v-19l277 1z" opacity=".467"/><path fill="#131313" d="M412.5 247.5c-121.374-.33-242.707.004-364 1 .111-.617.444-1.117 1-1.5l363 .5z" opacity=".933"/><use xlink:href="#E" fill="#050505"/><path fill="#141414" d="M414.5 292.5c-.073 1.527.594 2.527 2 3 2.921 6.353.921 10.853-6 13.5h-358c-1.237-.232-2.237-.732-3-1.5-.473-1.406-1.473-2.073-3-2-2.038-2.844-2.371-5.844-1-9 1.406-.473 2.073-1.473 2-3 .558-1.29 1.558-2.123 3-2.5h361c1.237.232 2.237.732 3 1.5z"/><use xlink:href="#B" x="276" y="241" fill="#7b7b7b" opacity=".839"/><use xlink:href="#C" x="-10" y="241" fill="#8d8d8d" opacity=".467"/><use xlink:href="#D" x="-17" y="178" fill="#919191" opacity=".733"/><path fill="#141414" d="M51.5 334.5l359 .5c7.432 3.245 9.266 8.411 5.5 15.5-1.419.96-2.919 1.793-4.5 2.5h-360c-7.129-3.396-8.629-8.563-4.5-15.5 1.652-.899 3.152-1.899 4.5-3z"/><path fill="#232323" d="M412.5 380.5c-121.374-.33-242.707.004-364 1 .111-.617.444-1.117 1-1.5l363 .5z" opacity=".867"/><use xlink:href="#E" y="133" fill="#030303"/><path fill="#141414" d="M414.5 425.5c-.073 1.527.594 2.527 2 3 2.921 6.353.921 10.853-6 13.5h-358c-1.237-.232-2.237-.732-3-1.5-.473-1.406-1.473-2.073-3-2-2.038-2.844-2.371-5.844-1-9 1.406-.473 2.073-1.473 2-3 .558-1.29 1.558-2.123 3-2.5h361l3 1.5z"/><use xlink:href="#B" x="276" y="374" fill="#828282" opacity=".8"/><g fill="#8e8e8e"><use xlink:href="#C" x="-10" y="374" opacity=".459"/><use xlink:href="#D" x="-17" y="311" opacity=".745"/></g><path fill="#151515" d="M51.5 467.5l173 .5c6.277 2.389 8.443 6.889 6.5 13.5a17.84 17.84 0 0 1-5.5 4.5h-174c-7.129-3.396-8.629-8.563-4.5-15.5 1.652-.899 3.152-1.899 4.5-3z"/><path fill="#272727" d="M359.5 552.5c1.923-3.529 2.589-7.529 2-12-.353-2.135.48-3.468 2.5-4 8.297 4.32 9.464 9.987 3.5 17 2.334 2.487 4.834 2.487 7.5 0 1.908-2.706 2.741-5.706 2.5-9h5v6c8.313-.805 11.146-5.139 8.5-13 3.562-5.531 6.562-5.197 9 1 .155 2.356.155 4.689 0 7a62.49 62.49 0 0 0 15.5 6c1.247 1.506 1.247 3.006 0 4.5-7.143-.159-13.643-2.326-19.5-6.5-4.494 4.558-9.994 6.891-16.5 7-5.829 6.582-11.663 6.582-17.5 0-9.158 4.867-17.492 3.867-25-3l-4.5 6.5c-3 2-6 2-9 0-6.051-10.384-14.384-18.384-25-24-10.257-1.082-15.59 3.585-16 14 1.164 6.138 1.664 12.305 1.5 18.5-2.276 2.564-4.276 2.23-6-1a22.98 22.98 0 0 1-2-5c-.185-10.724-1.018-21.39-2.5-32-.992-5.008 1.008-7.008 6-6-1.474 4.45-1.141 8.784 1 13 6.271-7.027 13.938-8.861 23-5.5 10.167 6.167 18.333 14.333 24.5 24.5 2.712-2.59 4.212-5.757 4.5-9.5-1.55-7.634-2.883-15.3-4-23 4.283-3.749 7.783-2.916 10.5 2.5 1.828 6.375 1.661 12.709-.5 19 4.66 8.887 11.66 11.22 21 7z" opacity=".999"/><path fill="#2a2a2a" d="M141.5 544.5c5.821-4.155 12.321-6.822 19.5-8 6.043.737 8.043 4.071 6 10-.883 2.602-2.383 4.769-4.5 6.5 10.473-2.395 20.473-6.229 30-11.5 2.781 1.287 3.448 3.287 2 6-14.203 6.457-28.869 11.623-44 15.5-10.41 7.067-21.743 9.4-34 7-4.592-2.022-7.092-5.522-7.5-10.5-12.48 5.316-18.647.982-18.5-13-5.828 3.485-10.161 8.318-13 14.5-1.612.72-3.112.554-4.5-.5a28.51 28.51 0 0 1-11.5 12c-3.599-1.574-5.266-4.407-5-8.5.777-5.166 2.444-9.999 5-14.5-6.933 3.1-11.6 8.267-14 15.5 1.761 3.067 1.261 5.567-1.5 7.5a6.54 6.54 0 0 1-3-3c-.854-4.125-.52-8.125 1-12 4.654-6.989 10.821-12.156 18.5-15.5a27.84 27.84 0 0 1 13 1c2.052.93 3.552 2.43 4.5 4.5 11.785-10.225 17.785-7.559 18 8 4.486 1.288 8.486.288 12-3 5.092-14.759 15.092-24.426 30-29 8.686 2.718 10.686 8.051 6 16-1.707 1.537-3.207 3.204-4.5 5zm0-15c.841 1.879 1.175 3.879 1 6-7.024 6.514-15.024 11.514-24 15-.992.172-1.658-.162-2-1 4.785-8.284 11.452-14.784 20-19.5a12.93 12.93 0 0 1 5-.5zm18 12c-8.178 2.992-15.178 7.825-21 14.5 1.788 1.088 3.788 1.588 6 1.5 8.756-1.242 14.756-6.075 18-14.5-.744-1.039-1.744-1.539-3-1.5zm-19 4c-7.894 4.752-16.228 8.752-25 12-1.163 2.05-.996 4.05.5 6 7.471 2.61 14.971 2.443 22.5-.5-3.36-.694-5.36-2.694-6-6 1.688-4.52 4.355-8.354 8-11.5zm-72 4c.951 1.419 1.284 3.085 1 5-1.273 2.213-2.273 4.546-3 7l-5 4c.793-6.059 3.126-11.392 7-16z" opacity=".999"/><path fill="#b0b0b0" d="M141.5 529.5c1.193.47 1.86 1.47 2 3-.02 1.226-.353 2.226-1 3 .175-2.121-.159-4.121-1-6z" opacity=".039"/><path fill="#707070" d="M361.5 540.5c.589 4.471-.077 8.471-2 12a331.2 331.2 0 0 1 2-12z" opacity=".686"/><path fill="#c8c8c8" d="M68.5 549.5c.06-.543.393-.876 1-1 1.293 2.136 1.293 4.136 0 6 .284-1.915-.049-3.581-1-5z" opacity=".098"/><path fill="#959595" d="M75.5 554.5c0-.667-.333-1-1-1-.155-4.6.512-4.933 2-1-.043.916-.376 1.583-1 2z" opacity=".365"/><path fill="#a2a2a2" d="M116.5 549.5c.342.838 1.008 1.172 2 1-.886 1.276-1.886 1.276-3 0 .124-.607.457-.94 1-1z" opacity=".2"/><path fill="#747474" d="M66.5 561.5c-.739 3.126-2.405 4.46-5 4l5-4z" opacity=".867"/><path d="M46.5 583.5l139 .5c2.667 2.667 2.667 5.333 0 8-46.333.667-92.667.667-139 0-2.561-2.823-2.561-5.657 0-8.5zm231 0l139 .5c2.667 2.667 2.667 5.333 0 8-46.333.667-92.667.667-139 0-2.601-2.83-2.601-5.663 0-8.5z" fill="#070707"/><path fill="#d8d8d8" d="M9.5 7.5h1v655h442v1H9.5V7.5z" opacity=".133"/><path fill="#868686" d="M479.5 689.5v1h-434v8c-.977-2.787-1.31-5.787-1-9h435z" opacity=".467"/><path fill="#b0b0b0" d="M18.5 689.5h18v17h-1v-16c-5.858.322-11.525-.011-17-1z" opacity=".22"/><defs ><path id="B" d="M138.5 51.5c1.406.473 2.073 1.473 2 3-1.406-.473-2.073-1.473-2-3z"/><path id="C" d="M57.5 52.5c.073 1.527-.594 2.527-2 3-.073-1.527.594-2.527 2-3z"/><path id="D" d="M63.5 127.5c1.527-.073 2.527.594 3 2-1.527.073-2.527-.594-3-2z"/><path id="E" d="M412.5 247.5c3.413 1.446 5.413 4.113 6 8-.663 3.841-2.663 6.675-6 8.5h-362c-5.498-3.16-6.998-7.66-4.5-13.5.708-.881 1.542-1.547 2.5-2l364-1z"/></defs></svg>