<svg xmlns="http://www.w3.org/2000/svg" width="1921.333" height="369.333" viewBox="0 0 1441 277" preserveAspectRatio="xMidYMid meet" xmlns:v="https://vecta.io/nano"><path d="M415.8 65.1l-.3 60-5.6-4.4c-16.9-13-40-19.4-60.6-16.7-18.9 2.4-35 10.5-48.8 24.5-16.3 16.6-24.5 36.7-24.5 60.5s8.2 43.9 24.5 60.5c18.5 18.7 42.8 27.6 67.7 24.5 17.5-2.1 31.2-8.2 46.6-20.6l3.2-2.7v10.7V272h13.5H445V138.5 5h-14.5H416l-.2 60.1zM379 132.6c13.3 3.8 28.4 16.7 34.8 29.6 10.9 22.1 7.3 48.5-8.9 66.2-12 13-24.7 18.8-41.4 18.9-6.9.1-11.9-.5-16-1.7-19.1-5.7-34.3-21.2-40-41-2.3-7.8-2.3-23.4 0-31.2 6.1-21.1 22.9-37.3 43.5-41.9 7.7-1.7 20-1.3 28 1.1zm538 5.9V272h15 15V138.5 5h-15-15v133.5zM555.1 21c-20.4 5.5-38.3 19.8-47.1 37.6-9.1 18.5-9.3 43-.5 60.3l2.5 5.1h18c9.9 0 18-.3 18-.6 0-.4-2.1-2.9-4.6-5.6-11.2-12-14-31.2-6.7-46.6 3.7-7.9 12.5-16.5 21-20.5 6.5-3.1 7.4-3.2 18.8-3.2s12.3.1 18.8 3.2c13.2 6.3 22.6 18.8 24.6 32.8 1.4 9.9-.1 17.3-5.7 28.5-3.9 7.9-40.3 62.8-95.8 144.7L506 272h73.5H653v-14-14h-47c-25.8 0-47-.2-47-.4 0-.3 16.3-24 36.1-52.8 41.8-60.5 45.6-66.5 49.5-78.5 2.6-8 2.9-10 2.9-22.8 0-13.1-.2-14.6-3.1-22.6-7.5-21.1-24.5-37.5-45.9-44.6-11.2-3.7-32.3-4.3-43.4-1.3zM3 147v125.1l44.8-.3c42.4-.4 45.1-.5 52.6-2.6 27.7-7.7 47.1-26.5 56.2-54.2 2.4-7.5 2.7-10.1 2.8-22 .1-11.5-.3-14.6-2.2-21-6.2-19.7-18.8-35.3-36.7-45.5l-5.4-3.2c-.2-.1 2-2.4 4.9-5 18.6-16.7 22.3-42 9.8-66.8-3.8-7.5-14.3-17.9-22.3-22.2-12.3-6.5-13.6-6.6-61.2-7L3 21.9V147zm80.5-95.6c11.5 3 20 10.3 22.6 19.3 1.8 6.2 1.6 17.8-.4 22.5-2.5 5.9-9.1 12.2-16 15.4l-6.2 2.9-24.7.3-24.8.4V81.7c0-16.7.3-30.7.7-31 1.3-1.3 43.5-.7 48.8.7zm5.3 89.1c8.7 2.1 16.1 5.9 22.5 11.6 7 6.2 10.9 12.4 14.2 22.4 9.9 29.3-7.2 61-36.6 68-4.8 1.1-12.6 1.5-30.6 1.5H34v-52.5V139h24.3c17.9 0 25.8.4 30.5 1.5zM717 147v125.1l44.8-.3c49.4-.4 50-.5 64.9-7.3 9.2-4.3 15.4-8.4 22.6-15.4 25.6-24.5 31.5-64.2 14.1-94.2-5.2-9-20.1-23.5-28.5-27.9l-6.6-3.4 6.6-6.5c14.1-14 19-31.5 14.1-50.5-5.2-20.4-18.3-34.9-37.5-41.3l-8-2.7-43.2-.4-43.3-.3V147zm85.3-94.1c12.2 4.8 18.7 14.8 18.7 28.6 0 12.9-6.7 22.8-18.6 27.6-5.5 2.2-7.4 2.4-30.1 2.7l-24.3.3V81 49.8l24.3.4c22.4.3 24.6.5 30 2.7zm.6 87.6c22.8 5.4 39.1 26.7 39.1 51 0 22.1-13.9 42-34.6 49.7-5.4 2-8.2 2.2-32.6 2.6l-26.8.4v-52.6V139h24.3c18 0 25.8.4 30.6 1.5zM213 36.1c-11.4 3.4-17.2 16.4-12.1 27.4 8.8 19.2 37.4 12.8 37.4-8.3 0-7.9-3.9-14.5-10.8-18-3.2-1.6-10.7-2.2-14.5-1.1zm848.5 66.9c-18 2.8-33.5 10.8-47.1 24.4-15.1 15.1-22 29.5-24.4 51.1-3 26.1 6.2 52.4 24.7 70.9 12 12.1 25.4 19.4 42.9 23.8 7 1.7 11.9 2.2 22.9 2.2 15.7 0 26-2 38.5-7.3 8.5-3.6 21-11.6 21-13.3 0-.7-1.7-8.4-3.7-17l-3.7-15.7-7.7 7.4c-17.7 16.9-40.7 22.2-64 14.9-4.1-1.3-10.2-4.1-13.5-6.2-8.2-5.3-17.5-15.7-21.7-24.1-3.4-6.7-6.6-17.5-5.5-18.6.2-.3 3.8-.1 7.9.5 4.1.5 35 1 68.7 1h61.2v-11.4c0-23.3-6.5-40.3-21.9-56.8-10.4-11.3-27.1-20.9-42-24.2-9.1-2.1-24.5-2.8-32.6-1.6zm28.6 28c14.5 4.4 27.5 15.3 34 28.5 2.1 4.4 4.2 9.5 4.5 11.3l.7 3.3-5.4-.8c-8.3-1.2-89.2-.8-97.4.5-3.8.6-7.1.9-7.3.7-1-1 4.2-13.6 7.9-19.2 7.6-11.7 21.9-22.5 33.5-25.2 7.3-1.7 22.6-1.3 29.5.9zm143.2-28c-11.9 2.2-24.5 9.3-30.6 17.3-7.9 10.4-11.6 24.3-10 36.9 2.7 20.5 13.5 30.3 47.5 43.3 23.1 8.9 29.2 13.7 30.4 24.1.9 7.5-1.1 13.1-6.5 18.5-5.8 5.9-10.4 7.2-23.1 6.7-8.4-.3-10.4-.8-17-3.9-9.6-4.6-16.9-10.4-21.7-17.3-2.1-3.1-4-5.5-4.3-5.6-.9 0-8.2 30.9-7.7 32.4.8 2.1 10.3 9 16.6 12.2 7.6 3.8 20.7 7.2 30.4 7.9 17.8 1.4 34.9-4.6 46.3-15.9 9.3-9.4 13.4-19.7 13.4-34.1 0-25.4-11.2-37.2-48.6-51.4-7.2-2.7-14.8-5.8-17-6.9-4.7-2.5-9.9-7.7-11.3-11.5-1.3-3.5-1.4-10.7-.2-14 1.3-3.4 6.8-9.5 10.2-11.3 14.7-7.6 37.8.2 50.4 16.9 2.4 3.1 4.6 5.4 4.8 5 .2-.5 2.1-7.5 4.2-15.6l3.8-14.8-3.8-3.9c-10.7-11-38-18.2-56.2-15zm144.2-.3c-27.8 3.7-45.9 27.3-42.4 55.3 1.1 9.3 4.6 16.3 11.5 23.2 6.7 6.8 15.7 11.7 34.5 18.9 15 5.7 19.9 8 24.8 11.8 10.7 8.1 8.9 27-3.4 34.6-4.7 2.9-5.2 3-16.9 3-11.6 0-12.4-.1-19.1-3.3-9.2-4.4-16.6-10.2-21.9-17.3-2.5-3.3-4.7-5.6-4.9-5.2-.2.5-2.1 7.7-4.3 16.1l-3.9 15.4 4.5 3.9c5.9 5.2 18.6 11.4 28.5 14 10.6 2.9 28.3 3.1 36.9.5 18.8-5.6 32-18.2 36.2-34.5 1.2-4.7 1.5-9.2 1.2-16.5-.7-14-3.1-19.9-11.7-28.5-7.8-7.8-14.7-11.6-35.6-19.6-17.2-6.6-19.1-7.5-23.4-11.1-8.8-7.4-9.4-20.2-1.3-28.7 11.4-12.1 35.5-8.4 51.7 7.8 3.5 3.4 6.6 7.2 7 8.4.3 1.1 1 2.1 1.4 2.1s2.5-7.2 4.6-16.1l4-16.1-3.5-2.9c-6.2-5.1-12.3-8.7-19-10.9-12-4.1-25.2-5.7-35.5-4.3zM204 189v83h15 15v-83-83h-15-15v83z"/></svg>